<?xml version="1.0" encoding="UTF-8"?>
<svg width="156px" height="104px" viewBox="0 0 156 104" version="1.1" xmlns="http://www.w3.org/2000/svg" preserveAspectRatio="xMidYMid meet">
    <title>Meta</title>
    <defs>
        <linearGradient x1="13.8784354%" y1="55.9337491%" x2="89.143574%" y2="58.6936324%" id="linearGradient-1">
            <stop stop-color="#0064E1" offset="0%"></stop>
            <stop stop-color="#0064E1" offset="40%"></stop>
            <stop stop-color="#0073EE" offset="83%"></stop>
            <stop stop-color="#0082FB" offset="100%"></stop>
        </linearGradient>
        <linearGradient x1="54.3150272%" y1="82.782443%" x2="54.3150272%" y2="39.3067715%" id="linearGradient-2">
            <stop stop-color="#0082FB" offset="0%"></stop>
            <stop stop-color="#0064E0" offset="100%"></stop>
        </linearGradient>
    </defs>
    <g>
        <path d="M16.7750211,68.0290295 C16.7750211,73.9591561 18.0766245,78.5120675 19.7778903,81.2664979 C22.0084388,84.8742616 25.3353586,86.4027004 28.7270886,86.4027004 C33.1017722,86.4027004 37.1037975,85.3171308 44.8162025,74.6504641 C50.9947679,66.1009283 58.2751055,54.1002532 63.1736709,46.5768776 L71.4693671,33.8308861 C77.2320675,24.978903 83.9021097,15.1385654 91.5497046,8.46852321 C97.7930802,3.02447257 104.527932,0 111.305992,0 C122.68557,0 133.525063,6.59443038 141.820759,18.9623629 C150.899578,32.5076793 155.306667,49.5689451 155.306667,67.1756962 C155.306667,77.6425316 153.243544,85.3333333 149.732996,91.4092827 C146.341266,97.2854008 139.730633,103.156118 128.610295,103.156118 L128.610295,86.4027004 C138.131983,86.4027004 140.508354,77.6533333 140.508354,67.6401688 C140.508354,53.3711392 137.181435,37.535865 129.852489,26.221097 C124.651477,18.195443 117.911224,13.2914768 110.495865,13.2914768 C102.475612,13.2914768 96.0216034,19.3404219 88.76827,30.1259072 C84.9120675,35.8562025 80.9532489,42.8394937 76.5083544,50.7193249 L71.6151899,59.3876793 C61.785654,76.8162025 59.295865,80.7858228 54.381097,87.3370464 C45.7667511,98.8084388 38.4108017,103.156118 28.7270886,103.156118 C17.2394937,103.156118 9.97535865,98.1819409 5.4764557,90.6855696 C1.80388186,84.5772152 0,76.5623629 0,67.4295359 L16.7750211,68.0290295 Z" fill="#0081FB"></path>
        <path d="M13.2266667,20.1451477 C20.9174684,8.29029536 32.0162025,0 44.7459916,0 C52.1181435,0 59.4470886,2.18194093 67.1000844,8.4307173 C75.4713924,15.2627848 84.3935865,26.5127426 95.5247257,45.0538397 L99.5159494,51.7076793 C109.151055,67.7589873 114.632911,76.0168776 117.841013,79.9108861 C121.967257,84.9120675 124.856709,86.4027004 128.610295,86.4027004 C138.131983,86.4027004 140.508354,77.6533333 140.508354,67.6401688 L155.306667,67.1756962 C155.306667,77.6425316 153.243544,85.3333333 149.732996,91.4092827 C146.341266,97.2854008 139.730633,103.156118 128.610295,103.156118 C121.697215,103.156118 115.572658,101.654684 108.8,95.2654852 C103.593586,90.361519 97.5068354,81.6499578 92.8243038,73.8187342 L78.8955274,50.5518987 C71.9068354,38.8752743 65.4960338,30.1691139 61.785654,26.2264979 C57.7944304,21.9868354 52.6636287,16.8668354 44.4759494,16.8668354 C37.8491139,16.8668354 32.2214346,21.516962 27.5118987,28.6298734 L13.2266667,20.1451477 Z" fill="url(#linearGradient-1)"></path>
        <path d="M44.4759494,16.8668354 C37.8491139,16.8668354 32.2214346,21.516962 27.5118987,28.6298734 C20.8526582,38.6808439 16.7750211,53.6519831 16.7750211,68.0290295 C16.7750211,73.9591561 18.0766245,78.5120675 19.7778903,81.2664979 L5.4764557,90.6855696 C1.80388186,84.5772152 0,76.5623629 0,67.4295359 C0,50.8219409 4.55831224,33.5122363 13.2266667,20.1451477 C20.9174684,8.29029536 32.0162025,0 44.7459916,0 L44.4759494,16.8668354 Z" fill="url(#linearGradient-2)"></path>
    </g>
</svg>
